<svg xmlns="http://www.w3.org/2000/svg" xmlns:xlink="http://www.w3.org/1999/xlink" width="500" zoomAndPan="magnify" viewBox="0 0 375 374.999991" height="500" preserveAspectRatio="xMidYMid meet" version="1.0"><defs><g/></defs><rect x="-37.5" width="450" fill="#ffffff" y="-37.499999" height="449.999989" fill-opacity="1"/><rect x="-37.5" width="450" fill="#ffffff" y="-37.499999" height="449.999989" fill-opacity="1"/><g fill="#000000" fill-opacity="1"><g transform="translate(69.251674, 179.234753)"><g><path d="M 36.761719 0 L 26.925781 -14.902344 L 31.414062 -16.972656 C 33.945312 -18.179688 35.039062 -19.964844 35.039062 -22.726562 L 35.039062 -29.054688 L 25.832031 -29.054688 L 25.945312 -23.820312 L 12.65625 -17.71875 L 12.65625 -42.285156 L 3.453125 -42.285156 L 3.453125 0 L 12.65625 0 L 12.65625 -8.226562 L 19.042969 -11.21875 L 26.292969 0 Z M 36.761719 0 "/></g></g></g><g fill="#000000" fill-opacity="1"><g transform="translate(107.737443, 179.234753)"><g><path d="M 14.210938 -31.929688 C 17.605469 -31.929688 19.734375 -33.542969 19.734375 -36.53125 C 19.734375 -39.46875 17.605469 -41.136719 14.210938 -41.136719 C 10.816406 -41.136719 8.800781 -39.46875 8.800781 -36.53125 C 8.800781 -33.542969 10.816406 -31.929688 14.210938 -31.929688 Z M 27.617188 0 L 27.617188 -8.054688 L 19.386719 -8.054688 L 19.386719 -24.796875 C 19.386719 -28.019531 17.605469 -29.800781 14.382812 -29.628906 L 3.453125 -29.054688 L 3.453125 -21 L 10.527344 -21.34375 L 10.527344 -8.054688 L 2.300781 -8.054688 L 2.300781 0 Z M 27.617188 0 "/></g></g></g><g fill="#000000" fill-opacity="1"><g transform="translate(136.50109, 179.234753)"><g><path d="M 20.941406 -21.574219 C 25.371094 -21.574219 26.925781 -19.5625 26.925781 -14.269531 L 26.925781 0 L 36.128906 0 L 36.128906 -15.707031 C 36.128906 -24.679688 31.644531 -29.628906 24.222656 -29.628906 C 18.007812 -29.628906 14.382812 -25.542969 13.234375 -20.367188 L 10.929688 -20.367188 L 12.65625 -25.542969 L 12.65625 -29.054688 L 3.453125 -29.054688 L 3.453125 0 L 12.65625 0 L 12.65625 -10.757812 C 12.65625 -18.929688 15.9375 -21.574219 20.941406 -21.574219 Z M 20.941406 -21.574219 "/></g></g></g><g fill="#000000" fill-opacity="1"><g transform="translate(175.504601, 179.234753)"><g><path d="M 2.300781 -14.902344 C 2.300781 -6.671875 7.421875 0.574219 18.582031 0.574219 C 28.652344 0.574219 33.425781 -6.039062 34 -10.242188 L 24.796875 -10.242188 C 24.222656 -8.054688 21.804688 -6.902344 18.582031 -6.902344 C 13.347656 -6.902344 10.929688 -9.261719 10.929688 -12.601562 L 32.964844 -12.601562 L 32.964844 -15.476562 C 32.964844 -24.277344 26.636719 -29.628906 17.605469 -29.628906 C 8.574219 -29.628906 2.300781 -24.105469 2.300781 -14.902344 Z M 10.929688 -17.777344 C 10.929688 -19.964844 12.484375 -22.148438 17.605469 -22.148438 C 22.726562 -22.148438 24.335938 -19.964844 24.335938 -17.777344 Z M 10.929688 -17.777344 "/></g></g></g><g fill="#000000" fill-opacity="1"><g transform="translate(211.804331, 179.234753)"><g><path d="M 16.683594 -21 L 26.234375 -21 L 26.234375 -29.054688 L 16.683594 -29.054688 L 16.683594 -37.394531 L 7.480469 -34.519531 L 7.480469 -29.054688 L 0.574219 -29.054688 L 0.574219 -21 L 7.480469 -21 L 7.480469 -4.316406 C 7.480469 -1.152344 9.207031 0.691406 12.371094 0.574219 L 27.386719 0 L 27.386719 -8.054688 L 16.683594 -7.480469 Z M 16.683594 -21 "/></g></g></g><g fill="#000000" fill-opacity="1"><g transform="translate(240.913143, 179.234753)"><g><path d="M 14.210938 -31.929688 C 17.605469 -31.929688 19.734375 -33.542969 19.734375 -36.53125 C 19.734375 -39.46875 17.605469 -41.136719 14.210938 -41.136719 C 10.816406 -41.136719 8.800781 -39.46875 8.800781 -36.53125 C 8.800781 -33.542969 10.816406 -31.929688 14.210938 -31.929688 Z M 27.617188 0 L 27.617188 -8.054688 L 19.386719 -8.054688 L 19.386719 -24.796875 C 19.386719 -28.019531 17.605469 -29.800781 14.382812 -29.628906 L 3.453125 -29.054688 L 3.453125 -21 L 10.527344 -21.34375 L 10.527344 -8.054688 L 2.300781 -8.054688 L 2.300781 0 Z M 27.617188 0 "/></g></g></g><g fill="#000000" fill-opacity="1"><g transform="translate(269.676801, 179.234753)"><g><path d="M 2.300781 -14.554688 C 2.300781 -4.832031 8.917969 0.574219 18.179688 0.574219 C 26.121094 0.574219 33.367188 -3.738281 33.773438 -12.023438 L 24.566406 -12.023438 C 24.222656 -9.433594 21.863281 -7.480469 18.179688 -7.480469 C 13.808594 -7.480469 11.507812 -10.066406 11.507812 -14.554688 C 11.507812 -18.984375 13.808594 -21.574219 18.179688 -21.574219 C 21.863281 -21.574219 24.222656 -19.617188 24.566406 -17.03125 L 33.773438 -17.03125 C 33.367188 -25.3125 26.121094 -29.628906 18.179688 -29.628906 C 8.917969 -29.628906 2.300781 -24.222656 2.300781 -14.554688 Z M 2.300781 -14.554688 "/></g></g></g><g fill="#000000" fill-opacity="1"><g transform="translate(148.775094, 241.993545)"><g><path d="M 4.90625 -3.65625 C 5.351562 -3.65625 5.734375 -3.632812 6.046875 -3.59375 C 6.367188 -3.5625 6.640625 -3.507812 6.859375 -3.4375 C 7.078125 -3.363281 7.25 -3.269531 7.375 -3.15625 C 7.5 -3.050781 7.597656 -2.929688 7.671875 -2.796875 C 7.742188 -2.660156 7.789062 -2.507812 7.8125 -2.34375 C 7.832031 -2.175781 7.84375 -1.992188 7.84375 -1.796875 C 7.84375 -1.597656 7.820312 -1.410156 7.78125 -1.234375 C 7.75 -1.054688 7.6875 -0.894531 7.59375 -0.75 C 7.507812 -0.613281 7.390625 -0.488281 7.234375 -0.375 C 7.078125 -0.257812 6.878906 -0.160156 6.640625 -0.078125 C 6.398438 -0.00390625 6.113281 0.0507812 5.78125 0.09375 C 5.445312 0.132812 5.050781 0.15625 4.59375 0.15625 L 3.515625 0.15625 C 3.109375 0.15625 2.753906 0.140625 2.453125 0.109375 C 2.148438 0.078125 1.882812 0.03125 1.65625 -0.03125 C 1.4375 -0.09375 1.253906 -0.171875 1.109375 -0.265625 C 0.972656 -0.367188 0.859375 -0.484375 0.765625 -0.609375 C 0.679688 -0.742188 0.625 -0.894531 0.59375 -1.0625 C 0.5625 -1.226562 0.546875 -1.414062 0.546875 -1.625 L 1.359375 -1.625 C 1.359375 -1.375 1.394531 -1.175781 1.46875 -1.03125 C 1.539062 -0.882812 1.660156 -0.773438 1.828125 -0.703125 C 1.992188 -0.628906 2.210938 -0.582031 2.484375 -0.5625 C 2.765625 -0.550781 3.109375 -0.546875 3.515625 -0.546875 L 4.59375 -0.546875 C 5.070312 -0.546875 5.46875 -0.566406 5.78125 -0.609375 C 6.09375 -0.648438 6.34375 -0.71875 6.53125 -0.8125 C 6.71875 -0.914062 6.847656 -1.046875 6.921875 -1.203125 C 6.992188 -1.367188 7.03125 -1.566406 7.03125 -1.796875 C 7.03125 -2.023438 7.003906 -2.210938 6.953125 -2.359375 C 6.898438 -2.515625 6.796875 -2.632812 6.640625 -2.71875 C 6.492188 -2.8125 6.28125 -2.875 6 -2.90625 C 5.71875 -2.945312 5.351562 -2.96875 4.90625 -2.96875 L 3.78125 -2.96875 C 3.289062 -2.96875 2.867188 -2.984375 2.515625 -3.015625 C 2.160156 -3.054688 1.863281 -3.113281 1.625 -3.1875 C 1.382812 -3.257812 1.191406 -3.34375 1.046875 -3.4375 C 0.898438 -3.539062 0.789062 -3.660156 0.71875 -3.796875 C 0.644531 -3.929688 0.597656 -4.078125 0.578125 -4.234375 C 0.554688 -4.398438 0.546875 -4.578125 0.546875 -4.765625 C 0.546875 -4.960938 0.5625 -5.144531 0.59375 -5.3125 C 0.625 -5.488281 0.6875 -5.644531 0.78125 -5.78125 C 0.882812 -5.914062 1.019531 -6.035156 1.1875 -6.140625 C 1.351562 -6.242188 1.566406 -6.332031 1.828125 -6.40625 C 2.085938 -6.476562 2.398438 -6.53125 2.765625 -6.5625 C 3.128906 -6.601562 3.5625 -6.625 4.0625 -6.625 L 4.875 -6.625 C 5.28125 -6.625 5.632812 -6.609375 5.9375 -6.578125 C 6.238281 -6.546875 6.5 -6.5 6.71875 -6.4375 C 6.9375 -6.375 7.117188 -6.296875 7.265625 -6.203125 C 7.410156 -6.109375 7.523438 -5.992188 7.609375 -5.859375 C 7.703125 -5.734375 7.765625 -5.585938 7.796875 -5.421875 C 7.828125 -5.253906 7.84375 -5.070312 7.84375 -4.875 L 7.03125 -4.875 C 7.03125 -5.125 6.992188 -5.320312 6.921875 -5.46875 C 6.847656 -5.613281 6.726562 -5.71875 6.5625 -5.78125 C 6.394531 -5.851562 6.171875 -5.898438 5.890625 -5.921875 C 5.617188 -5.941406 5.28125 -5.953125 4.875 -5.953125 L 4.0625 -5.953125 C 3.519531 -5.953125 3.070312 -5.929688 2.71875 -5.890625 C 2.375 -5.859375 2.097656 -5.796875 1.890625 -5.703125 C 1.691406 -5.609375 1.550781 -5.484375 1.46875 -5.328125 C 1.394531 -5.179688 1.359375 -4.992188 1.359375 -4.765625 C 1.359375 -4.628906 1.363281 -4.503906 1.375 -4.390625 C 1.394531 -4.285156 1.4375 -4.191406 1.5 -4.109375 C 1.5625 -4.023438 1.644531 -3.953125 1.75 -3.890625 C 1.863281 -3.835938 2.007812 -3.789062 2.1875 -3.75 C 2.375 -3.71875 2.597656 -3.691406 2.859375 -3.671875 C 3.117188 -3.660156 3.425781 -3.65625 3.78125 -3.65625 Z M 4.90625 -3.65625 "/></g></g></g><g fill="#000000" fill-opacity="1"><g transform="translate(162.552547, 241.993545)"><g><path d="M 7.84375 -6.5 L 7.84375 -5.8125 L 4.59375 -5.8125 L 4.59375 0 L 3.78125 0 L 3.78125 -5.8125 L 0.546875 -5.8125 L 0.546875 -6.5 Z M 7.84375 -6.5 "/></g></g></g><g fill="#000000" fill-opacity="1"><g transform="translate(176.33, 241.993545)"><g><path d="M 8.390625 -6.5 L 8.390625 -3.25 C 8.390625 -2.863281 8.382812 -2.507812 8.375 -2.1875 C 8.363281 -1.875 8.332031 -1.59375 8.28125 -1.34375 C 8.226562 -1.09375 8.140625 -0.875 8.015625 -0.6875 C 7.898438 -0.507812 7.734375 -0.359375 7.515625 -0.234375 C 7.296875 -0.109375 7.015625 -0.015625 6.671875 0.046875 C 6.328125 0.109375 5.910156 0.140625 5.421875 0.140625 L 3.515625 0.140625 C 3.015625 0.140625 2.59375 0.109375 2.25 0.046875 C 1.914062 -0.015625 1.640625 -0.109375 1.421875 -0.234375 C 1.203125 -0.359375 1.03125 -0.507812 0.90625 -0.6875 C 0.789062 -0.875 0.707031 -1.09375 0.65625 -1.34375 C 0.601562 -1.59375 0.570312 -1.875 0.5625 -2.1875 C 0.550781 -2.507812 0.546875 -2.863281 0.546875 -3.25 L 0.546875 -6.5 L 1.359375 -6.5 L 1.359375 -3.25 C 1.359375 -2.84375 1.359375 -2.492188 1.359375 -2.203125 C 1.367188 -1.910156 1.394531 -1.660156 1.4375 -1.453125 C 1.476562 -1.253906 1.539062 -1.09375 1.625 -0.96875 C 1.707031 -0.851562 1.828125 -0.765625 1.984375 -0.703125 C 2.148438 -0.640625 2.351562 -0.597656 2.59375 -0.578125 C 2.84375 -0.554688 3.148438 -0.546875 3.515625 -0.546875 L 5.421875 -0.546875 C 5.773438 -0.546875 6.078125 -0.554688 6.328125 -0.578125 C 6.578125 -0.597656 6.78125 -0.640625 6.9375 -0.703125 C 7.09375 -0.765625 7.210938 -0.851562 7.296875 -0.96875 C 7.390625 -1.09375 7.457031 -1.253906 7.5 -1.453125 C 7.539062 -1.660156 7.5625 -1.910156 7.5625 -2.203125 C 7.570312 -2.492188 7.578125 -2.84375 7.578125 -3.25 L 7.578125 -6.5 Z M 8.390625 -6.5 "/></g></g></g><g fill="#000000" fill-opacity="1"><g transform="translate(190.652307, 241.993545)"><g><path d="M 5.671875 -0.671875 C 6.035156 -0.671875 6.335938 -0.679688 6.578125 -0.703125 C 6.828125 -0.722656 7.03125 -0.765625 7.1875 -0.828125 C 7.351562 -0.890625 7.476562 -0.976562 7.5625 -1.09375 C 7.65625 -1.207031 7.722656 -1.359375 7.765625 -1.546875 C 7.804688 -1.734375 7.828125 -1.96875 7.828125 -2.25 C 7.835938 -2.53125 7.84375 -2.863281 7.84375 -3.25 C 7.84375 -3.632812 7.835938 -3.960938 7.828125 -4.234375 C 7.828125 -4.515625 7.804688 -4.75 7.765625 -4.9375 C 7.722656 -5.132812 7.65625 -5.289062 7.5625 -5.40625 C 7.476562 -5.519531 7.351562 -5.601562 7.1875 -5.65625 C 7.03125 -5.71875 6.828125 -5.757812 6.578125 -5.78125 C 6.335938 -5.800781 6.035156 -5.8125 5.671875 -5.8125 L 1.625 -5.8125 L 1.625 -0.671875 Z M 0.8125 0 L 0.8125 -6.5 L 5.671875 -6.5 C 6.171875 -6.5 6.585938 -6.46875 6.921875 -6.40625 C 7.265625 -6.34375 7.546875 -6.253906 7.765625 -6.140625 C 7.992188 -6.023438 8.164062 -5.878906 8.28125 -5.703125 C 8.40625 -5.523438 8.492188 -5.3125 8.546875 -5.0625 C 8.597656 -4.820312 8.628906 -4.550781 8.640625 -4.25 C 8.648438 -3.945312 8.65625 -3.613281 8.65625 -3.25 C 8.65625 -2.875 8.648438 -2.535156 8.640625 -2.234375 C 8.628906 -1.929688 8.597656 -1.660156 8.546875 -1.421875 C 8.492188 -1.179688 8.40625 -0.972656 8.28125 -0.796875 C 8.164062 -0.617188 7.992188 -0.46875 7.765625 -0.34375 C 7.546875 -0.226562 7.265625 -0.140625 6.921875 -0.078125 C 6.585938 -0.0234375 6.171875 0 5.671875 0 Z M 0.8125 0 "/></g></g></g><g fill="#000000" fill-opacity="1"><g transform="translate(205.240707, 241.993545)"><g><path d="M 0.8125 -6.5 L 1.625 -6.5 L 1.625 0 L 0.8125 0 Z M 0.8125 -6.5 "/></g></g></g><g fill="#000000" fill-opacity="1"><g transform="translate(213.071213, 241.993545)"><g><path d="M 5.953125 -6.625 C 6.453125 -6.625 6.867188 -6.59375 7.203125 -6.53125 C 7.546875 -6.476562 7.828125 -6.390625 8.046875 -6.265625 C 8.265625 -6.140625 8.429688 -5.984375 8.546875 -5.796875 C 8.671875 -5.609375 8.757812 -5.390625 8.8125 -5.140625 C 8.863281 -4.890625 8.894531 -4.609375 8.90625 -4.296875 C 8.914062 -3.984375 8.921875 -3.632812 8.921875 -3.25 C 8.921875 -2.863281 8.914062 -2.507812 8.90625 -2.1875 C 8.894531 -1.875 8.863281 -1.59375 8.8125 -1.34375 C 8.757812 -1.09375 8.671875 -0.875 8.546875 -0.6875 C 8.429688 -0.507812 8.265625 -0.359375 8.046875 -0.234375 C 7.828125 -0.109375 7.546875 -0.015625 7.203125 0.046875 C 6.867188 0.109375 6.453125 0.140625 5.953125 0.140625 L 3.515625 0.140625 C 3.015625 0.140625 2.59375 0.109375 2.25 0.046875 C 1.914062 -0.015625 1.640625 -0.109375 1.421875 -0.234375 C 1.203125 -0.359375 1.03125 -0.507812 0.90625 -0.6875 C 0.789062 -0.875 0.703125 -1.09375 0.640625 -1.34375 C 0.585938 -1.59375 0.554688 -1.875 0.546875 -2.1875 C 0.546875 -2.507812 0.546875 -2.863281 0.546875 -3.25 C 0.546875 -3.632812 0.546875 -3.984375 0.546875 -4.296875 C 0.554688 -4.609375 0.585938 -4.890625 0.640625 -5.140625 C 0.703125 -5.390625 0.789062 -5.609375 0.90625 -5.796875 C 1.03125 -5.984375 1.203125 -6.140625 1.421875 -6.265625 C 1.640625 -6.390625 1.914062 -6.476562 2.25 -6.53125 C 2.59375 -6.59375 3.015625 -6.625 3.515625 -6.625 Z M 5.953125 -0.546875 C 6.316406 -0.546875 6.617188 -0.554688 6.859375 -0.578125 C 7.109375 -0.597656 7.3125 -0.640625 7.46875 -0.703125 C 7.632812 -0.765625 7.757812 -0.851562 7.84375 -0.96875 C 7.925781 -1.09375 7.988281 -1.253906 8.03125 -1.453125 C 8.070312 -1.660156 8.09375 -1.910156 8.09375 -2.203125 C 8.101562 -2.492188 8.109375 -2.84375 8.109375 -3.25 C 8.109375 -3.65625 8.101562 -4.003906 8.09375 -4.296875 C 8.09375 -4.585938 8.070312 -4.832031 8.03125 -5.03125 C 7.988281 -5.226562 7.925781 -5.382812 7.84375 -5.5 C 7.757812 -5.625 7.632812 -5.71875 7.46875 -5.78125 C 7.3125 -5.851562 7.109375 -5.898438 6.859375 -5.921875 C 6.617188 -5.941406 6.316406 -5.953125 5.953125 -5.953125 L 3.515625 -5.953125 C 3.148438 -5.953125 2.84375 -5.941406 2.59375 -5.921875 C 2.351562 -5.898438 2.148438 -5.851562 1.984375 -5.78125 C 1.828125 -5.71875 1.703125 -5.625 1.609375 -5.5 C 1.523438 -5.382812 1.460938 -5.226562 1.421875 -5.03125 C 1.390625 -4.832031 1.367188 -4.585938 1.359375 -4.296875 C 1.359375 -4.003906 1.359375 -3.65625 1.359375 -3.25 C 1.359375 -2.84375 1.359375 -2.492188 1.359375 -2.203125 C 1.367188 -1.910156 1.390625 -1.660156 1.421875 -1.453125 C 1.460938 -1.253906 1.523438 -1.09375 1.609375 -0.96875 C 1.703125 -0.851562 1.828125 -0.765625 1.984375 -0.703125 C 2.148438 -0.640625 2.351562 -0.597656 2.59375 -0.578125 C 2.84375 -0.554688 3.148438 -0.546875 3.515625 -0.546875 Z M 5.953125 -0.546875 "/></g></g></g><g fill="#000000" fill-opacity="1"><g transform="translate(64.560389, 222.863539)"><g><path d="M 29.847656 -34.933594 L 22.242188 -34.933594 L 22.242188 -22.527344 L 23.667969 -18.25 L 21.769531 -18.25 C 20.53125 -21.433594 18.25 -24.476562 12.308594 -24.476562 C 5.371094 -24.476562 1.902344 -18.820312 1.902344 -12.023438 C 1.902344 -5.226562 5.371094 0.476562 12.308594 0.476562 C 18.25 0.476562 20.53125 -2.566406 21.769531 -5.75 L 23.667969 -5.75 L 22.242188 -1.472656 L 22.242188 0 L 29.847656 0 Z M 22.242188 -12.023438 C 22.242188 -7.984375 19.960938 -6.179688 15.875 -6.179688 C 11.785156 -6.179688 9.503906 -7.984375 9.503906 -12.023438 C 9.503906 -16.0625 11.785156 -17.824219 15.875 -17.824219 C 19.960938 -17.824219 22.242188 -16.0625 22.242188 -12.023438 Z M 22.242188 -12.023438 "/></g></g></g><g fill="#000000" fill-opacity="1"><g transform="translate(97.253765, 222.863539)"><g><path d="M 11.738281 -26.378906 C 14.542969 -26.378906 16.300781 -27.707031 16.300781 -30.179688 C 16.300781 -32.605469 14.542969 -33.980469 11.738281 -33.980469 C 8.933594 -33.980469 7.273438 -32.605469 7.273438 -30.179688 C 7.273438 -27.707031 8.933594 -26.378906 11.738281 -26.378906 Z M 22.8125 0 L 22.8125 -6.652344 L 16.015625 -6.652344 L 16.015625 -20.484375 C 16.015625 -23.144531 14.542969 -24.621094 11.882812 -24.476562 L 2.851562 -24 L 2.851562 -17.347656 L 8.699219 -17.632812 L 8.699219 -6.652344 L 1.902344 -6.652344 L 1.902344 0 Z M 22.8125 0 "/></g></g></g><g fill="#000000" fill-opacity="1"><g transform="translate(121.013483, 222.863539)"><g><path d="M 21.863281 -28.277344 L 21.863281 -34.933594 L 17.773438 -34.933594 C 9.742188 -34.933594 5.988281 -31.320312 5.988281 -24.855469 L 5.988281 -24 L 1.425781 -24 L 1.425781 -17.347656 L 5.988281 -17.347656 L 5.988281 -6.652344 L 1.425781 -6.652344 L 1.425781 0 L 20.53125 0 L 20.53125 -6.652344 L 13.59375 -6.652344 L 13.59375 -17.347656 L 20.53125 -17.347656 L 20.53125 -24 L 13.59375 -24 L 13.59375 -24.621094 C 13.59375 -27.28125 14.589844 -28.277344 16.824219 -28.277344 Z M 21.863281 -28.277344 "/></g></g></g><g fill="#000000" fill-opacity="1"><g transform="translate(143.347622, 222.863539)"><g><path d="M 21.863281 -28.277344 L 21.863281 -34.933594 L 17.773438 -34.933594 C 9.742188 -34.933594 5.988281 -31.320312 5.988281 -24.855469 L 5.988281 -24 L 1.425781 -24 L 1.425781 -17.347656 L 5.988281 -17.347656 L 5.988281 -6.652344 L 1.425781 -6.652344 L 1.425781 0 L 20.53125 0 L 20.53125 -6.652344 L 13.59375 -6.652344 L 13.59375 -17.347656 L 20.53125 -17.347656 L 20.53125 -24 L 13.59375 -24 L 13.59375 -24.621094 C 13.59375 -27.28125 14.589844 -28.277344 16.824219 -28.277344 Z M 21.863281 -28.277344 "/></g></g></g><g fill="#000000" fill-opacity="1"><g transform="translate(165.681761, 222.863539)"><g><path d="M 14.921875 -6.179688 C 11.265625 -6.179688 9.980469 -7.84375 9.980469 -12.214844 L 9.980469 -24 L 2.375 -24 L 2.375 -11.027344 C 2.375 -3.613281 6.082031 0.476562 12.214844 0.476562 C 17.347656 0.476562 20.339844 -2.898438 21.292969 -7.175781 L 23.195312 -7.175781 L 21.769531 -2.898438 L 21.769531 0 L 29.371094 0 L 29.371094 -24 L 21.769531 -24 L 21.769531 -15.113281 C 21.769531 -8.363281 19.058594 -6.179688 14.921875 -6.179688 Z M 14.921875 -6.179688 "/></g></g></g><g fill="#000000" fill-opacity="1"><g transform="translate(197.424751, 222.863539)"><g><path d="M 25.238281 -6.605469 C 25.238281 -11.597656 20.960938 -12.785156 16.300781 -14.304688 C 12.5 -15.542969 10.125 -16.253906 10.125 -17.394531 C 10.125 -18.34375 11.121094 -18.773438 12.925781 -18.773438 C 15.542969 -18.773438 16.824219 -17.488281 16.824219 -15.777344 L 24.429688 -15.777344 C 24.429688 -20.4375 21.101562 -24.476562 12.976562 -24.476562 C 6.367188 -24.476562 2.519531 -22.003906 2.519531 -17.726562 C 2.519531 -12.355469 7.984375 -11.167969 12.453125 -9.695312 C 16.300781 -8.414062 17.632812 -8.078125 17.632812 -6.84375 C 17.632812 -5.703125 16.347656 -5.226562 14.304688 -5.226562 C 10.3125 -5.226562 9.03125 -6.84375 9.03125 -8.699219 L 1.425781 -8.699219 C 1.425781 -3.089844 5.226562 0.476562 14.066406 0.476562 C 22.339844 0.476562 25.238281 -2.566406 25.238281 -6.605469 Z M 25.238281 -6.605469 "/></g></g></g><g fill="#000000" fill-opacity="1"><g transform="translate(223.607962, 222.863539)"><g><path d="M 11.738281 -26.378906 C 14.542969 -26.378906 16.300781 -27.707031 16.300781 -30.179688 C 16.300781 -32.605469 14.542969 -33.980469 11.738281 -33.980469 C 8.933594 -33.980469 7.273438 -32.605469 7.273438 -30.179688 C 7.273438 -27.707031 8.933594 -26.378906 11.738281 -26.378906 Z M 22.8125 0 L 22.8125 -6.652344 L 16.015625 -6.652344 L 16.015625 -20.484375 C 16.015625 -23.144531 14.542969 -24.621094 11.882812 -24.476562 L 2.851562 -24 L 2.851562 -17.347656 L 8.699219 -17.632812 L 8.699219 -6.652344 L 1.902344 -6.652344 L 1.902344 0 Z M 22.8125 0 "/></g></g></g><g fill="#000000" fill-opacity="1"><g transform="translate(247.36768, 222.863539)"><g><path d="M 1.902344 -12.023438 C 1.902344 -3.613281 7.890625 0.476562 15.445312 0.476562 C 22.957031 0.476562 28.945312 -3.613281 28.945312 -12.023438 C 28.945312 -20.390625 22.957031 -24.476562 15.445312 -24.476562 C 7.890625 -24.476562 1.902344 -20.390625 1.902344 -12.023438 Z M 9.503906 -12.023438 C 9.503906 -16.015625 11.835938 -17.824219 15.445312 -17.824219 C 19.011719 -17.824219 21.339844 -16.015625 21.339844 -12.023438 C 21.339844 -7.984375 19.011719 -6.179688 15.445312 -6.179688 C 11.835938 -6.179688 9.503906 -7.984375 9.503906 -12.023438 Z M 9.503906 -12.023438 "/></g></g></g><g fill="#000000" fill-opacity="1"><g transform="translate(278.207789, 222.863539)"><g><path d="M 17.300781 -17.824219 C 20.960938 -17.824219 22.242188 -16.160156 22.242188 -11.785156 L 22.242188 0 L 29.847656 0 L 29.847656 -12.976562 C 29.847656 -20.390625 26.140625 -24.476562 20.007812 -24.476562 C 14.875 -24.476562 11.882812 -21.101562 10.929688 -16.824219 L 9.03125 -16.824219 L 10.457031 -21.101562 L 10.457031 -24 L 2.851562 -24 L 2.851562 0 L 10.457031 0 L 10.457031 -8.886719 C 10.457031 -15.636719 13.164062 -17.824219 17.300781 -17.824219 Z M 17.300781 -17.824219 "/></g></g></g></svg>